<svg viewBox="0 0 106 128" fill="currentColor" xmlns="http://www.w3.org/2000/svg">
<path d="M38 36C42.9706 36 47 31.9706 47 27C47 22.0294 42.9706 18 38 18C33.0294 18 29 22.0294 29 27C29 31.9706 33.0294 36 38 36Z" fill="#2F2E41"/>
<path d="M53 72C66.2548 72 77 61.2548 77 48C77 34.7452 66.2548 24 53 24C39.7452 24 29 34.7452 29 48C29 61.2548 39.7452 72 53 72Z" fill="#2F2E41"/>
<path d="M55 72C65.4934 72 74 63.2696 74 52.5C74 41.7304 65.4934 33 55 33C44.5066 33 36 41.7304 36 52.5C36 63.2696 44.5066 72 55 72Z" fill="#9E616A"/>
<path d="M68.22 33.1995C64.7772 31.158 60.8337 30.0536 56.8019 30.0019C52.7701 29.9502 48.7981 30.9531 45.3012 32.9056C41.8043 34.8582 38.9108 37.6887 36.9235 41.1013C34.9361 44.5139 33.9278 48.3831 34.004 52.3045C44.0153 54.7494 54.5327 56.6204 65.209 52.8893L67.7303 46.8871L69.2167 52.8937C72.468 54.1864 75.7277 55.2801 78.9874 52.8812C79.1205 48.9709 78.1961 45.0952 76.3066 41.6413C74.417 38.1875 71.6286 35.2765 68.22 33.1995Z" fill="#2F2E41"/>
<path d="M29.108 1.5602C22.6564 -1.40541 14.5613 -0.0138365 9.18925 4.63639C3.81719 9.28661 1.26331 16.8549 2.30041 23.8939C3.35832 31.0747 7.71292 37.2583 11.7268 43.2996C15.7408 49.3408 19.6621 55.9607 19.6576 63.2193C19.6544 68.4474 17.5832 73.4609 13.8982 77.1602C10.2131 80.8596 5.21502 82.9429 0 82.9533C6.12067 85.5948 12.509 88.2882 19.1655 87.9751C25.822 87.662 32.7989 83.372 33.8847 76.7808C34.6671 72.0316 32.3429 67.4005 30.4044 62.9967C27.247 55.8208 24.9648 48.2892 23.6072 40.5653C22.9598 36.8788 22.5382 33.0032 23.7371 29.4582C24.6918 26.8312 26.4632 24.5814 28.7902 23.0403C31.1172 21.4993 33.8766 20.7487 36.6615 20.8992L38.8609 18.9156C39.8392 11.8681 35.5598 4.52577 29.108 1.5602Z" fill="#2F2E41"/>
<path d="M106 105.712C94.4838 118.644 78.2765 126.588 60.8768 127.829C43.4771 129.07 26.2807 123.509 13 112.345L18.7015 96.6444C19.99 93.8557 22.0233 91.4657 24.5834 89.7308C27.1435 87.9958 30.1338 86.9813 33.2337 86.7959L36.8609 86.5762L45.5098 79.2144C45.5098 79.2144 68.8141 78.3932 68.4683 78L82.5844 86.3796L82.5727 86.3217L88.1219 86.6572C91.222 86.8417 94.2127 87.8559 96.7729 89.591C99.3332 91.326 101.366 93.7164 102.654 96.5056L106 105.712Z" fill="#F48170"/>
</svg>
