<svg viewBox="0 0 372 189" fill="currentColor" xmlns="http://www.w3.org/2000/svg">
<g clip-path="url(#clip0_112_522)">
<path d="M48.573 177.644C48.2546 177.658 47.9394 177.575 47.6701 177.404C47.4008 177.234 47.1904 176.984 47.0674 176.69C46.9445 176.396 46.9149 176.071 46.9827 175.759C47.0504 175.448 47.2123 175.165 47.4464 174.948C47.4856 174.792 47.5137 174.68 47.5529 174.524C47.5389 174.49 47.5247 174.457 47.5106 174.423C47.1898 173.665 46.6523 173.018 45.9656 172.565C45.2789 172.112 44.4736 171.871 43.6509 171.874C42.8282 171.878 42.0247 172.124 41.3413 172.582C40.658 173.041 40.1254 173.691 39.8102 174.451C38.5508 177.486 36.9473 180.526 36.5525 183.735C36.3786 185.153 36.452 186.591 36.7693 187.984C33.8113 181.528 32.2752 174.512 32.2654 167.41C32.2647 165.628 32.3637 163.847 32.5618 162.076C32.7255 160.624 32.9526 159.183 33.2432 157.751C34.8286 149.986 38.2326 142.707 43.1757 136.513C45.5681 135.207 47.5029 133.199 48.7193 130.759C49.16 129.882 49.4715 128.946 49.644 127.979C49.3742 128.015 49.0998 128.037 48.83 128.054C48.7459 128.059 48.6574 128.063 48.5733 128.068L48.5416 128.069C48.245 128.082 47.9509 128.01 47.6947 127.86C47.4384 127.71 47.231 127.489 47.0973 127.223C46.9637 126.958 46.9095 126.66 46.9413 126.365C46.9732 126.069 47.0896 125.789 47.2767 125.559C47.3933 125.415 47.5099 125.272 47.6265 125.128C47.8035 124.907 47.9849 124.69 48.1619 124.469C48.1823 124.448 48.2015 124.426 48.2194 124.403C48.4229 124.15 48.6264 123.902 48.8299 123.65C48.4584 123.073 47.9588 122.59 47.3699 122.238C45.3303 121.043 42.5164 121.871 41.0431 123.716C39.5654 125.562 39.2867 128.152 39.7999 130.458C40.3046 132.42 41.1394 134.282 42.2687 135.964C42.1581 136.106 42.043 136.243 41.9324 136.385C39.9105 138.986 38.1482 141.779 36.6709 144.724C37.0302 141.425 36.6014 138.087 35.4198 134.986C34.2223 132.096 31.9778 129.662 30.0012 127.163C27.627 124.162 22.7585 125.472 22.3402 129.276C22.3361 129.313 22.3322 129.35 22.3283 129.387C22.6219 129.552 22.9093 129.728 23.1905 129.914C23.5437 130.151 23.8174 130.488 23.9758 130.882C24.1341 131.277 24.1696 131.71 24.0777 132.125C23.9858 132.54 23.7708 132.917 23.4608 133.208C23.1508 133.499 22.7602 133.689 22.3404 133.753L22.2974 133.76C22.402 134.819 22.5868 135.868 22.8504 136.898C23.6141 139.776 24.9637 142.464 26.8145 144.795C28.6653 147.125 30.9774 149.048 33.6059 150.443C33.7784 150.532 33.9466 150.62 34.1191 150.705C32.6349 154.913 31.7039 159.296 31.3495 163.745C31.1489 166.369 31.1607 169.006 31.3849 171.628L31.3717 171.535C30.8053 168.619 29.2504 165.988 26.9694 164.086C23.5817 161.301 18.7955 160.276 15.1407 158.038C14.7523 157.789 14.3007 157.655 13.8391 157.654C13.3775 157.653 12.9253 157.784 12.5356 158.032C12.146 158.279 11.8353 158.633 11.6401 159.052C11.4449 159.47 11.3734 159.936 11.4341 160.394C11.439 160.426 11.4439 160.459 11.449 160.491C11.9938 160.713 12.5243 160.969 13.0373 161.257C13.3309 161.423 13.6183 161.599 13.8995 161.785C14.2527 162.021 14.5264 162.358 14.6848 162.753C14.8431 163.147 14.8786 163.58 14.7867 163.995C14.6948 164.41 14.4798 164.788 14.1698 165.078C13.8598 165.369 13.4692 165.559 13.0494 165.624L13.0063 165.63C12.9754 165.635 12.9488 165.639 12.9179 165.644C13.8488 167.868 15.1553 169.914 16.7803 171.695C18.7877 173.85 21.2138 175.572 23.9101 176.755C26.6063 177.939 29.5157 178.559 32.46 178.578H32.4645C33.2637 182.053 34.4217 185.435 35.9199 188.67H48.2637C48.3079 188.533 48.3477 188.391 48.3876 188.254C47.245 188.326 46.0979 188.258 44.972 188.05C45.8878 186.926 46.8036 185.793 47.7195 184.669C47.7399 184.648 47.7591 184.625 47.777 184.602C48.2415 184.027 48.7105 183.456 49.1751 182.88L49.1753 182.88C49.2001 181.116 48.9978 179.356 48.5734 177.644L48.573 177.644Z" fill="#F2F2F2"/>
<path d="M294.696 170.286C294.93 170.503 295.225 170.642 295.541 170.685C295.857 170.728 296.178 170.672 296.461 170.526C296.745 170.38 296.977 170.151 297.125 169.869C297.274 169.587 297.332 169.266 297.292 168.949C297.363 168.805 297.413 168.701 297.483 168.556C297.516 168.539 297.548 168.523 297.581 168.506C298.314 168.132 299.141 167.984 299.959 168.079C300.776 168.174 301.547 168.509 302.174 169.041C302.802 169.574 303.258 170.28 303.486 171.07C303.714 171.861 303.704 172.702 303.456 173.487C302.467 176.62 301.738 179.979 299.975 182.689C299.196 183.887 298.215 184.94 297.076 185.801C303.493 182.766 309.183 178.386 313.76 172.958C314.907 171.594 315.977 170.168 316.965 168.685C317.774 167.468 318.527 166.219 319.226 164.936C323.009 157.973 325.087 150.21 325.29 142.287C324.299 139.747 324.111 136.964 324.75 134.313C324.977 133.358 325.341 132.441 325.83 131.59C326.014 131.791 326.21 131.985 326.405 132.172C326.467 132.23 326.531 132.29 326.593 132.347L326.616 132.369C326.835 132.57 327.107 132.704 327.399 132.754C327.692 132.804 327.993 132.769 328.266 132.652C328.539 132.535 328.772 132.342 328.938 132.095C329.103 131.849 329.194 131.56 329.199 131.263C329.203 131.078 329.206 130.893 329.208 130.708C329.215 130.425 329.216 130.142 329.223 129.859C329.221 129.829 329.221 129.8 329.222 129.771C329.228 129.446 329.232 129.126 329.239 128.802C329.894 128.599 330.588 128.551 331.265 128.661C333.594 129.06 335.215 131.506 335.155 133.867C335.098 136.232 333.645 138.393 331.769 139.827C330.12 141.004 328.283 141.891 326.337 142.451C326.33 142.631 326.33 142.81 326.323 142.989C326.197 146.282 325.749 149.555 324.984 152.76C326.832 150.004 329.308 147.726 332.207 146.113C334.983 144.673 338.267 144.255 341.387 143.616C345.135 142.849 348.018 146.986 345.891 150.167C345.87 150.198 345.849 150.229 345.829 150.259C345.497 150.197 345.164 150.147 344.829 150.108C344.407 150.061 343.98 150.143 343.606 150.343C343.231 150.543 342.925 150.851 342.728 151.228C342.531 151.605 342.453 152.032 342.503 152.454C342.554 152.876 342.73 153.273 343.01 153.593L343.038 153.626C342.277 154.369 341.461 155.053 340.596 155.672C338.16 157.382 335.398 158.57 332.482 159.161C329.566 159.753 326.559 159.736 323.65 159.11C323.461 159.067 323.276 159.026 323.089 158.98C321.518 163.156 319.41 167.11 316.819 170.743C315.284 172.88 313.578 174.89 311.719 176.753L311.789 176.69C314.099 174.823 316.982 173.811 319.951 173.824C324.335 173.875 328.658 176.173 332.894 176.814C333.352 176.874 333.784 177.063 334.138 177.359C334.491 177.655 334.753 178.047 334.892 178.487C335.031 178.928 335.041 179.399 334.921 179.845C334.801 180.291 334.556 180.693 334.215 181.004C334.191 181.026 334.166 181.048 334.141 181.069C333.581 180.888 333.011 180.742 332.433 180.632C332.102 180.57 331.769 180.52 331.434 180.481C331.011 180.434 330.585 180.516 330.21 180.716C329.835 180.916 329.529 181.224 329.333 181.601C329.136 181.978 329.058 182.405 329.108 182.827C329.158 183.249 329.335 183.646 329.614 183.966L329.643 183.999C329.664 184.022 329.681 184.043 329.702 184.066C327.559 185.169 325.242 185.893 322.853 186.209C319.93 186.566 316.966 186.321 314.141 185.49C311.316 184.66 308.69 183.26 306.425 181.379L306.422 181.376C303.575 183.52 300.512 185.363 297.284 186.874L287.838 178.924C287.892 178.79 287.953 178.656 288.011 178.526C288.839 179.316 289.761 180.003 290.756 180.57C290.778 179.119 290.806 177.662 290.829 176.212C290.827 176.183 290.826 176.154 290.828 176.124C290.842 175.385 290.851 174.646 290.866 173.906L290.866 173.905C291.982 172.54 293.269 171.323 294.695 170.286L294.696 170.286Z" fill="#F2F2F2"/>
<path d="M90.638 103.486C90.2923 103.403 89.9691 103.244 89.6911 103.023C89.4132 102.801 89.1872 102.521 89.0292 102.202C88.8711 101.883 88.7848 101.534 88.7763 101.178C88.7679 100.823 88.8374 100.47 88.9801 100.144L82.6387 94.2686L87.0003 93.197L92.3535 98.9404C92.8847 99.2165 93.2962 99.678 93.5101 100.237C93.7239 100.797 93.7252 101.415 93.5137 101.975C93.3022 102.536 92.8927 102.999 92.3627 103.277C91.8326 103.556 91.219 103.63 90.6379 103.486H90.638Z" fill="#FFB6B6"/>
<path d="M71.2866 87.4625L64.6397 68.0505C64.1145 66.5113 64.2211 64.8264 64.936 63.3657C65.6509 61.9049 66.9158 60.7876 68.4532 60.2588V60.2588C69.3047 59.967 70.21 59.8663 71.1047 59.9639C71.9995 60.0614 72.8618 60.3549 73.6304 60.8234C74.3991 61.2919 75.0552 61.9239 75.5523 62.6747C76.0493 63.4254 76.3751 64.2764 76.5064 65.1673L79.1632 83.19L90.277 94.5772L87.3538 98.7444L71.2866 87.4625Z" fill="#3F3D56"/>
<path d="M60.3138 179.042H65.0592L67.3166 160.73H60.313L60.3138 179.042Z" fill="#FFB6B6"/>
<path d="M58.707 176.7L66.208 176.252V179.467L73.3394 184.395C73.6916 184.638 73.9569 184.988 74.0965 185.393C74.2361 185.797 74.2427 186.236 74.1153 186.645C73.9879 187.054 73.7332 187.412 73.3884 187.665C73.0436 187.919 72.6268 188.056 72.1987 188.056H57.7612L58.707 176.7Z" fill="#2F2E41"/>
<path d="M64.4592 93.0295C64.4592 93.0295 62.9799 91.4791 60.1447 95.142C57.5254 98.459 57.6556 99.1065 57.9936 103.32C58.2689 106.333 55.5708 121.477 58.2597 124.051L60.428 172.551C60.428 172.551 67.0064 174.399 67.3161 171.3L84.301 109.627L82.2716 93.8587L64.4592 93.0295Z" fill="#2F2E41"/>
<path d="M95.8758 178.583L100.034 176.296L93.1942 159.161L87.0571 162.537L95.8758 178.583Z" fill="#FFB6B6"/>
<path d="M93.3398 177.305L99.6972 173.297L101.245 176.114L109.868 176.995C110.293 177.038 110.694 177.217 111.011 177.504C111.329 177.792 111.546 178.173 111.631 178.593C111.716 179.013 111.665 179.449 111.485 179.837C111.305 180.226 111.006 180.547 110.631 180.753L102.806 185.057L100.93 186.089L97.9796 187.712L93.3398 177.305Z" fill="#2F2E41"/>
<path d="M58.089 101.213C58.089 101.213 58.0032 109.026 57.2827 113.602C56.5847 117.771 57.4891 122.05 59.8144 125.58C61.5066 128.087 63.9989 130.425 67.5947 131.384L92.8504 172.84C92.8504 172.84 99.5044 171.288 98.2835 168.423L83.4687 106.193L74.0972 93.3535L58.089 101.213Z" fill="#2F2E41"/>
<path d="M57.8849 79.1084L57.1333 103.32L82.1953 96.3813L82.6362 95.1842L83.7106 91.1075C83.7106 91.1075 81.2257 85.2421 81.7324 71.5845L75.4018 54.6977L65.3741 54.4927L65.3182 54.5486C62.1512 57.7118 59.8152 61.6094 58.5183 65.8944C57.2214 70.1795 57.0038 74.7189 57.8849 79.1084V79.1084Z" fill="#3F3D56"/>
<path d="M108.301 89.0588C107.961 89.1624 107.602 89.19 107.25 89.1398C106.898 89.0896 106.562 88.9628 106.264 88.7684C105.966 88.5739 105.715 88.3165 105.527 88.0143C105.34 87.712 105.221 87.3723 105.179 87.0191L96.7354 85.1721L99.9517 82.0359L107.476 84.2707C108.074 84.2392 108.663 84.4282 109.131 84.8019C109.598 85.1756 109.913 85.708 110.015 86.2982C110.116 86.8884 109.998 87.4954 109.682 88.0042C109.366 88.513 108.875 88.8883 108.301 89.0589V89.0588Z" fill="#FFB6B6"/>
<path d="M83.5014 85.0645L67.9346 71.7046C66.7019 70.6443 65.9398 69.138 65.8158 67.5163C65.6917 65.8946 66.2157 64.2898 67.2728 63.0542C67.8589 62.3707 68.5881 61.8247 69.4088 61.4549C70.2294 61.0852 71.1214 60.9007 72.0214 60.9145C72.9213 60.9284 73.8072 61.1404 74.616 61.5353C75.4249 61.9303 76.137 62.4985 76.7017 63.1997L88.1252 77.3864L103.475 81.5635L103.068 86.6382L83.5014 85.0645Z" fill="#3F3D56"/>
<path d="M80.7956 38.1545C80.7942 40.9006 79.7496 43.5434 77.8733 45.5477C75.997 47.552 73.4295 48.7677 70.6907 48.9488C67.9519 49.1298 65.2468 48.2625 63.1233 46.5225C60.9999 44.7826 59.6168 42.3002 59.2544 39.5782C58.892 36.8562 59.5773 34.0981 61.1715 31.8628C62.7657 29.6274 65.1496 28.0819 67.8402 27.5393C70.5308 26.9968 73.327 27.4977 75.6622 28.9407C77.9975 30.3837 79.6971 32.6608 80.4169 35.3107C80.6687 36.2377 80.7961 37.194 80.7956 38.1545V38.1545Z" fill="#FFB8B8"/>
<path d="M76.8576 23.9066C75.9808 23.8806 76.2818 22.2271 75.5754 21.6996C75.5719 21.7156 75.5684 21.7316 75.5647 21.7475C75.472 22.1047 75.2673 22.4227 74.9804 22.6546C74.6936 22.8866 74.3399 23.0203 73.9714 23.036C73.6029 23.0517 73.2391 22.9487 72.9336 22.742C72.6281 22.5353 72.3969 22.2359 72.2743 21.888C72.1571 21.4854 71.945 21.1169 71.6559 20.8134C71.3668 20.51 71.009 20.2804 70.6127 20.144C70.5687 21.6766 69.41 23.0068 68.0277 23.6687C66.6454 24.3307 65.0692 24.4408 63.5369 24.4635C62.0046 24.4861 60.4502 24.4348 58.9643 24.81C57.4783 25.1851 56.033 26.0672 55.3982 27.4627C54.7633 28.8582 55.2163 30.7794 56.6045 31.4289C55.529 31.4347 54.6165 32.3225 54.2447 33.3321C53.9399 34.3677 53.8603 35.4565 54.0115 36.5254C54.3137 40.4833 55.0506 44.7444 57.9312 47.4739C60.1266 49.5542 63.269 50.3923 66.2928 50.3802C69.3165 50.368 68.7849 50.09 71.7085 49.3179C71.7085 49.3179 74.4881 41.3456 73.7882 40.5614C73.0882 39.7771 72.5069 38.7736 72.6336 37.7298C72.7602 36.6861 73.8813 35.7511 74.8543 36.1484C74.6907 35.73 74.5674 35.6503 74.4902 35.6716C74.5394 35.5526 74.5823 35.4312 74.6188 35.3078C74.802 34.679 75.1317 34.1026 75.5808 33.6261C76.03 33.1496 76.5858 32.7865 77.2025 32.5668C77.8254 32.3645 78.4953 32.3578 79.1222 32.5476C79.749 32.7374 80.3028 33.1146 80.7091 33.6285C83.9105 30.6246 81.9244 24.0572 76.8576 23.9066Z" fill="#2F2E41"/>
<path d="M262.832 103.486C263.177 103.403 263.501 103.244 263.779 103.023C264.057 102.801 264.283 102.521 264.441 102.202C264.599 101.883 264.685 101.534 264.693 101.178C264.702 100.823 264.632 100.47 264.49 100.144L270.831 94.2686L266.469 93.197L261.116 98.9404C260.585 99.2165 260.173 99.678 259.96 100.237C259.746 100.797 259.745 101.415 259.956 101.975C260.167 102.536 260.577 102.999 261.107 103.277C261.637 103.556 262.251 103.63 262.832 103.486H262.832Z" fill="#9E616A"/>
<path d="M266.116 98.7444L263.193 94.5772L274.307 83.19L276.964 65.1673C277.095 64.2764 277.421 63.4254 277.918 62.6747C278.415 61.9239 279.071 61.2919 279.84 60.8234C280.608 60.3549 281.471 60.0614 282.365 59.9639C283.26 59.8663 284.165 59.967 285.017 60.2588V60.2588C286.554 60.7876 287.819 61.9049 288.534 63.3657C289.249 64.8264 289.356 66.5113 288.83 68.0505L282.184 87.4625L266.116 98.7444Z" fill="#E6E6E6"/>
<path d="M293.156 179.042H288.411L286.154 160.73H293.157L293.156 179.042Z" fill="#9E616A"/>
<path d="M295.709 188.056H281.271C280.843 188.056 280.427 187.919 280.082 187.665C279.737 187.412 279.482 187.054 279.355 186.645C279.227 186.236 279.234 185.797 279.374 185.393C279.513 184.988 279.779 184.638 280.131 184.395L287.262 179.467V176.252L294.763 176.7L295.709 188.056Z" fill="#2F2E41"/>
<path d="M289.011 93.0295C289.011 93.0295 292.848 99.8346 295.683 103.498C298.303 106.815 297.965 108.576 297.627 112.79C297.352 115.803 297.899 121.477 295.21 124.051L293.042 172.552C293.042 172.552 286.463 174.399 286.154 171.3L269.169 109.627L271.198 93.8588L289.011 93.0295Z" fill="#2F2E41"/>
<path d="M257.594 178.583L253.436 176.296L260.276 159.161L266.413 162.537L257.594 178.583Z" fill="#9E616A"/>
<path d="M255.49 187.712L252.54 186.089L250.664 185.057L242.839 180.753C242.464 180.547 242.164 180.226 241.984 179.837C241.804 179.449 241.753 179.013 241.839 178.593C241.924 178.173 242.141 177.792 242.458 177.504C242.775 177.217 243.176 177.038 243.602 176.995L252.224 176.114L253.773 173.297L260.13 177.305L255.49 187.712Z" fill="#2F2E41"/>
<path d="M295.381 101.213C295.381 101.213 295.466 109.026 296.187 113.602C296.885 117.771 295.981 122.05 293.655 125.58C291.963 128.087 289.471 130.425 285.875 131.384L260.619 172.84C260.619 172.84 253.965 171.288 255.186 168.423L270.001 106.193L279.372 93.3535L295.381 101.213Z" fill="#2F2E41"/>
<path d="M288.152 54.5486L288.096 54.4927L278.068 54.6977L271.737 71.5845C272.244 85.2421 269.759 91.1075 269.759 91.1075L270.834 95.1842L267.512 115.372L299.45 108.907L295.585 79.1084C296.466 74.7189 296.249 70.1795 294.952 65.8944C293.655 61.6094 291.319 57.7118 288.152 54.5486V54.5486Z" fill="#E6E6E6"/>
<path d="M245.169 89.0588C245.509 89.1624 245.867 89.19 246.219 89.1398C246.571 89.0896 246.908 88.9628 247.206 88.7683C247.504 88.5739 247.755 88.3165 247.943 88.0142C248.13 87.712 248.249 87.3723 248.291 87.0191L256.734 85.1721L253.518 82.0359L245.993 84.2707C245.396 84.2392 244.807 84.4283 244.339 84.8019C243.871 85.1756 243.557 85.708 243.455 86.2982C243.354 86.8884 243.472 87.4954 243.788 88.0042C244.103 88.513 244.595 88.8883 245.169 89.0589L245.169 89.0588Z" fill="#9E616A"/>
<path d="M250.402 86.6382L249.995 81.5635L265.345 77.3864L276.768 63.1997C277.333 62.4985 278.045 61.9303 278.854 61.5353C279.663 61.1404 280.549 60.9284 281.449 60.9145C282.349 60.9007 283.241 61.0852 284.061 61.4549C284.882 61.8247 285.611 62.3707 286.197 63.0542C287.254 64.2898 287.778 65.8946 287.654 67.5163C287.53 69.138 286.768 70.6443 285.536 71.7046L269.969 85.0645L250.402 86.6382Z" fill="#E6E6E6"/>
<path d="M273.053 35.3107C273.773 32.6608 275.473 30.3837 277.808 28.9407C280.143 27.4977 282.939 26.9968 285.63 27.5393C288.321 28.0819 290.704 29.6274 292.299 31.8628C293.893 34.0981 294.578 36.8562 294.216 39.5782C293.853 42.3002 292.47 44.7826 290.347 46.5225C288.223 48.2625 285.518 49.1298 282.779 48.9488C280.041 48.7677 277.473 47.552 275.597 45.5477C273.721 43.5434 272.676 40.9006 272.675 38.1545C272.674 37.194 272.801 36.2377 273.053 35.3107V35.3107Z" fill="#9E616A"/>
<path d="M276.613 23.9066C277.489 23.8806 288.401 24.4409 289.933 24.4635C291.466 24.4862 293.02 24.4348 294.506 24.81C295.992 25.1852 297.437 26.0672 298.072 27.4627C298.707 28.8582 298.854 32.3225 299.225 33.3321C299.53 34.3677 299.61 35.4566 299.459 36.5254C299.156 40.4833 298.42 44.7444 295.539 47.474C293.343 49.5543 290.201 50.3923 287.177 50.3802C284.154 50.3681 284.685 50.09 281.762 49.3179C281.762 49.3179 278.982 41.3456 279.682 40.5614C280.382 39.7771 280.963 38.7736 280.837 37.7299C280.71 36.6861 279.589 35.7512 278.616 36.1485C278.779 35.73 278.903 35.6503 278.98 35.6716C278.931 35.5527 278.888 35.4313 278.851 35.3079C278.668 34.679 278.338 34.1027 277.889 33.6261C277.44 33.1496 276.884 32.7866 276.268 32.5668C275.645 32.3645 274.975 32.3578 274.348 32.5476C273.721 32.7374 273.167 33.1146 272.761 33.6285C269.56 30.6247 271.546 24.0572 276.613 23.9066Z" fill="#2F2E41"/>
<path d="M107.548 88.2727C121.566 86.4351 137.214 84.562 149.481 93.2119C154.421 96.6956 158.287 101.734 159.467 107.745C160.213 111.546 159.975 115.45 160.023 119.298C160.067 122.745 160.376 126.184 161.537 129.451C163.5 134.975 167.347 139.666 172.107 143.034C177.27 146.631 183.387 148.612 189.678 148.724C203.608 149.072 216.309 141.515 225.177 131.207C234.701 120.136 240.164 106.407 244.931 92.7813C245.56 90.9847 246.182 89.1859 246.798 87.3849C247.069 86.5975 245.823 86.2593 245.554 87.0417C240.789 100.893 235.904 115.026 227.022 126.864C218.876 137.721 207.034 146.352 193.148 147.35C186.817 147.804 180.448 146.557 174.949 143.332C169.901 140.371 165.671 135.912 163.333 130.514C162.074 127.452 161.402 124.18 161.351 120.869C161.211 117.038 161.492 113.186 161.02 109.37C160.263 103.254 157.158 97.918 152.496 93.9319C147.787 90.002 142.134 87.3699 136.096 86.296C128.577 84.8787 120.88 85.3714 113.33 86.2527C111.401 86.4779 109.474 86.7289 107.548 86.9815C106.736 87.0879 106.726 88.3806 107.548 88.2727V88.2727Z" fill="#3F3D56"/>
<path d="M222.79 57.0102C220.334 59.6186 216.763 61.0003 213.192 61.2757C210.632 61.4728 208.059 61.1426 205.632 60.3054C203.205 59.4682 200.976 58.1418 199.081 56.4083C197.187 54.6748 195.668 52.571 194.619 50.227C193.569 47.8829 193.012 45.3484 192.98 42.7802C192.941 39.8963 193.57 37.0253 193.428 34.1414C193.075 27.0178 188.076 20.5441 188.609 13.4291L192.034 14.4923C189.736 13.7692 187.439 13.046 185.141 12.3229C184.354 12.1123 183.598 11.7952 182.896 11.3803C180.891 10.0632 180.301 7.15775 181.265 4.95825C182.233 2.75875 184.466 1.28668 186.819 0.79599C188.421 0.491781 190.066 0.502017 191.664 0.826123C192.428 0.962517 193.184 1.14507 193.927 1.37277C196.092 0.658762 198.392 0.447369 200.651 0.754626C202.91 1.06188 205.07 1.87972 206.967 3.14614C209.272 4.7314 211.087 6.9307 212.207 9.49499C212.923 11.1127 213.341 12.8464 213.441 14.6128C213.7 19.4164 211.652 24.3922 211.944 29.0322C212.007 30.3013 212.291 31.5496 212.783 32.721C215.322 38.6308 223.302 40.968 225.303 47.0844C226.417 50.4892 225.247 54.4018 222.79 57.0102Z" fill="#2F2E41"/>
<path d="M224.656 149.37L221.362 152.786L206.623 141.698L211.486 136.656L224.656 149.37Z" fill="#9E616A"/>
<path d="M232.912 153.791L230.575 156.215L229.089 157.756L222.888 164.186C222.591 164.494 222.203 164.699 221.781 164.771C221.359 164.844 220.925 164.779 220.543 164.587C220.16 164.394 219.849 164.085 219.655 163.703C219.46 163.322 219.393 162.888 219.463 162.465L220.87 153.909L218.557 151.677L224.087 146.587L232.912 153.791Z" fill="#2F2E41"/>
<path d="M192.988 155.878L188.716 157.946L178.714 142.445L185.018 139.394L192.988 155.878Z" fill="#9E616A"/>
<path d="M199.209 162.881L196.178 164.348L194.251 165.28L186.212 169.171C185.827 169.357 185.392 169.416 184.971 169.338C184.55 169.259 184.165 169.049 183.873 168.736C183.58 168.423 183.395 168.025 183.344 167.6C183.294 167.175 183.38 166.745 183.592 166.372L187.867 158.829L186.467 155.935L193.415 153.07L199.209 162.881Z" fill="#2F2E41"/>
<path d="M199.955 70.2168C199.955 70.2168 203.792 77.0219 206.627 80.6849C209.247 84.0018 208.909 85.7633 208.571 89.977C208.296 92.99 208.843 98.6639 206.154 101.238L204.979 127.523L219.474 144.143C219.474 144.143 213.614 152.475 213.304 149.376L191.845 129.414L180.113 86.8142L182.142 71.0461L199.955 70.2168Z" fill="#2F2E41"/>
<path d="M206.325 78.4C206.325 78.4 206.411 86.213 207.131 90.7894C207.829 94.9586 206.925 99.2376 204.599 102.767C202.907 105.275 200.415 107.612 196.819 108.572L184.524 128.753L191.354 148.306C191.354 148.306 181.537 153.963 182.758 151.098L170.876 125.676L180.945 83.38L190.317 70.5408L206.325 78.4Z" fill="#2F2E41"/>
<path d="M199.096 31.7359L199.04 31.6799L189.012 31.885L182.682 48.7718C183.188 62.4294 180.703 68.2947 180.703 68.2947L181.778 72.3715L182.219 73.5686L210.394 86.0943L206.529 56.2957C207.41 51.9061 207.193 47.3667 205.896 43.0817C204.599 38.7966 202.263 34.899 199.096 31.7359Z" fill="#F48170"/>
<path d="M156.113 66.2461C156.453 66.3496 156.812 66.3773 157.164 66.3271C157.515 66.2769 157.852 66.1501 158.15 65.9556C158.448 65.7611 158.699 65.5037 158.887 65.2015C159.074 64.8993 159.193 64.5596 159.235 64.2064L167.679 62.3594L164.462 59.2231L156.937 61.4579C156.34 61.4265 155.751 61.6155 155.283 61.9892C154.816 62.3629 154.501 62.8953 154.399 63.4855C154.298 64.0757 154.416 64.6827 154.732 65.1915C155.047 65.7003 155.539 66.0756 156.113 66.2461L156.113 66.2461Z" fill="#9E616A"/>
<path d="M161.346 63.8254L160.939 58.7508L176.289 54.5736L187.713 40.387C188.277 39.6858 188.989 39.1175 189.798 38.7226C190.607 38.3276 191.493 38.1157 192.393 38.1018C193.293 38.0879 194.185 38.2724 195.005 38.6422C195.826 39.012 196.555 39.558 197.141 40.2414V40.2414C198.199 41.4771 198.723 43.0818 198.598 44.7036C198.474 46.3253 197.712 47.8316 196.48 48.8919L180.913 62.2518L161.346 63.8254Z" fill="#F48170"/>
<path d="M221.082 86.8309C221.219 86.5027 221.283 86.1484 221.268 85.7929C221.254 85.4375 221.162 85.0896 220.998 84.7737C220.835 84.4578 220.604 84.1816 220.322 83.9646C220.041 83.7475 219.715 83.5949 219.368 83.5175L218.38 74.9272L214.938 77.8136L216.404 85.5285C216.312 86.1204 216.441 86.7253 216.766 87.2285C217.09 87.7317 217.588 88.0983 218.165 88.2588C218.741 88.4194 219.357 88.3627 219.895 88.0995C220.432 87.8363 220.855 87.3849 221.082 86.8309V86.8309Z" fill="#9E616A"/>
<path d="M219.201 81.3779L214.114 81.2737L211.503 65.5739L198.543 52.7767C197.902 52.1442 197.409 51.3783 197.097 50.5334C196.786 49.6885 196.664 48.7854 196.741 47.8882C196.817 46.991 197.091 46.1216 197.541 45.3419C197.991 44.5622 198.607 43.8911 199.346 43.3765V43.3765C200.681 42.4484 202.329 42.0881 203.93 42.3746C205.53 42.6611 206.951 43.5711 207.882 44.9048L219.603 61.7431L219.201 81.3779Z" fill="#F48170"/>
<path d="M183.997 12.4979C184.717 9.84794 186.417 7.57083 188.752 6.12784C191.087 4.68485 193.883 4.18389 196.574 4.72645C199.265 5.26902 201.648 6.81454 203.243 9.04991C204.837 11.2853 205.522 14.0433 205.16 16.7653C204.797 19.4873 203.414 21.9698 201.291 23.7097C199.167 25.4496 196.462 26.3169 193.724 26.1359C190.985 25.9549 188.417 24.7391 186.541 22.7348C184.665 20.7306 183.62 18.0877 183.619 15.3417C183.618 14.3811 183.745 13.4248 183.997 12.4979V12.4979Z" fill="#9E616A"/>
<path d="M182.623 75.2713C180.734 75.2646 178.875 74.8015 177.204 73.9216C175.533 73.0416 174.099 71.7707 173.024 70.217C172.428 69.3177 171.914 68.2023 172.261 67.1122C172.355 66.7294 172.583 66.3934 172.905 66.1665C173.227 65.9395 173.62 65.8368 174.012 65.8775C174.862 65.9965 175.593 66.6464 176.162 67.2423C176.933 68.0935 177.64 68.9999 178.278 69.9544C179.288 71.3825 181.254 73.6945 179.734 75.4049C178.456 76.8435 176.305 76.9653 174.584 77.484C172.724 78.0444 170.82 79.3018 170.652 81.4228C170.49 83.4854 172.47 84.877 174.297 85.1759C175.389 85.3315 176.502 85.2169 177.54 84.8421C178.577 84.4673 179.507 83.8437 180.248 83.026C181.697 81.3504 182.487 79.2052 182.473 76.9897C182.47 76.8222 182.402 76.6624 182.284 76.5439C182.166 76.4254 182.006 76.3576 181.839 76.3547C181.671 76.3517 181.509 76.414 181.387 76.5282C181.264 76.6425 181.191 76.7998 181.182 76.9671C181.15 78.985 180.49 81.0458 178.996 82.4598C177.597 83.7836 175.375 84.4145 173.552 83.6348C172.651 83.2492 171.812 82.4374 171.952 81.3813C172.08 80.412 172.867 79.653 173.689 79.2154C175.549 78.2256 177.783 78.3132 179.597 77.1712C181.327 76.0821 182.017 74.26 181.231 72.3282C180.737 71.2564 180.121 70.2444 179.398 69.312C178.735 68.3324 178.013 67.3941 177.236 66.5022C176.07 65.2199 174.242 63.9772 172.487 64.8926C170.485 65.9359 170.619 68.5521 171.545 70.2635C173.656 74.1658 178.247 76.5458 182.6 76.5626C182.767 76.5597 182.927 76.4919 183.045 76.3735C183.164 76.2551 183.232 76.0953 183.235 75.9278C183.237 75.7604 183.175 75.5983 183.061 75.4758C182.947 75.3533 182.79 75.28 182.622 75.2712L182.623 75.2713Z" fill="#2F2E41"/>
<path d="M211.944 29.0322L194.796 25.5242C194.172 22.2315 199.933 17.7937 201.43 12.3832C198.754 12.0604 195.17 11.5223 192.068 10.8207C188.966 10.1148 186.342 9.24967 185.585 8.26399C186.135 5.57958 187.727 3.22342 190.013 1.71331C192.298 0.203208 195.089 -0.337278 197.773 0.210635L199.877 0.641065C199.945 0.653978 200.014 0.671196 200.083 0.688413C202.662 1.2657 204.919 2.81497 206.386 5.01424C208.541 6.20598 210.503 7.71663 212.207 9.49502C212.923 11.1127 213.341 12.8464 213.442 14.6128C213.7 19.4164 211.652 24.3922 211.944 29.0322Z" fill="#2F2E41"/>
<path d="M372 188.488C372 188.555 371.987 188.622 371.961 188.684C371.936 188.746 371.898 188.803 371.85 188.85C371.803 188.898 371.746 188.936 371.684 188.961C371.622 188.987 371.555 189 371.488 189H0.511965C0.376184 189 0.245969 188.946 0.149957 188.85C0.0539448 188.754 0 188.624 0 188.488C0 188.352 0.0539448 188.222 0.149957 188.126C0.245969 188.03 0.376184 187.976 0.511965 187.976H371.488C371.555 187.975 371.622 187.989 371.684 188.014C371.746 188.04 371.803 188.078 371.85 188.125C371.898 188.173 371.936 188.229 371.961 188.292C371.987 188.354 372 188.42 372 188.488Z" fill="#CCCCCC"/>
</g>
<defs>
<clipPath id="clip0_112_522">
<rect width="372" height="189" fill="white"/>
</clipPath>
</defs>
</svg>
