<svg fill="currentColor" viewBox="0 0 93 113" xmlns="http://www.w3.org/2000/svg">
<path d="M41.296 53.3671C53.0149 53.3671 62.5149 43.867 62.5149 32.1482C62.5149 20.4293 53.0149 10.9293 41.296 10.9293C29.5771 10.9293 20.0771 20.4293 20.0771 32.1482C20.0771 43.867 29.5771 53.3671 41.296 53.3671Z" fill="#FFB6B6"/>
<path d="M93 89.608C81.4838 102.712 65.2764 110.761 47.8768 112.019C30.4771 113.276 13.2807 107.641 0 96.3291L5.70152 80.4199C6.98998 77.5942 9.02327 75.1725 11.5834 73.4145C14.1435 71.6565 17.1338 70.6285 20.2337 70.4407L23.8609 70.2181L32.5098 62.7586C32.5098 62.7586 55.8141 61.9265 55.4684 61.5281L69.5845 70.0188L69.5727 69.9602L75.1219 70.3001C78.222 70.4871 81.2127 71.5148 83.7729 73.2728C86.3332 75.0309 88.3663 77.4531 89.6541 80.2793L93 89.608Z" fill="#7989C4"/>
<path d="M63.6755 18.9887C61.8824 12.5709 57.8086 7.02817 52.2187 3.40099C47.7639 0.551657 42.205 -0.902994 37.1582 0.603839C32.1113 2.11067 27.9329 7.06351 28.2633 12.4148C26.4416 11.7949 24.3706 12.6196 23.0371 14.0287C21.7036 15.4379 20.9865 17.3334 20.473 19.2202C18.8534 25.22 18.9607 31.5551 20.7825 37.4967L20.6823 38.3494C23.1445 37.9421 25.0121 35.8295 26.1735 33.5787C27.3348 31.3278 28.0031 28.8307 29.2618 26.6349C30.5205 24.4392 32.6108 22.4804 35.1043 22.4119L34.8845 26.2234C37.0298 25.1181 39.1751 24.0128 41.3204 22.9076C40.8101 24.1282 40.2998 25.3489 39.7895 26.5695C41.663 25.7865 43.5366 25.0034 45.4101 24.2204C45.2007 25.3941 44.9912 26.5679 44.7818 27.7417C46.6399 23.5125 52.3861 21.6546 56.2949 24.0192C58.565 25.3924 60.0544 27.8398 60.8378 30.4099C61.6213 32.98 61.7762 35.6988 61.9257 38.3858C64.8207 32.3404 65.4419 25.4546 63.6755 18.9887V18.9887Z" fill="#2F2E41"/>
</svg>
