<svg viewBox="0 0 95 127" fill="currentColor" xmlns="http://www.w3.org/2000/svg">
<path d="M37.8125 1.23978e-05L25.0156 7.38831L32.4039 20.1852L45.2008 12.7969L37.8125 1.23978e-05Z" fill="#FF6584"/>
<path d="M37.9746 22.8523L30.2598 9.48994L43.6222 1.77527L51.337 15.1378L37.9746 22.8523ZM31.1516 9.72899L38.2136 21.9605L50.4452 14.8988L43.3831 2.66707L31.1516 9.72899Z" fill="#2F2E41"/>
<path d="M26.0034 58.7593C29.4283 58.7593 32.2046 55.9829 32.2046 52.5581C32.2046 49.1333 29.4283 46.3569 26.0034 46.3569C22.5786 46.3569 19.8022 49.1333 19.8022 52.5581C19.8022 55.9829 22.5786 58.7593 26.0034 58.7593Z" fill="#D0CDE1"/>
<path d="M30.5725 59.0858C29.2815 59.0858 28.0194 58.7029 26.946 57.9857C25.8725 57.2684 25.0359 56.249 24.5418 55.0562C24.0478 53.8635 23.9185 52.551 24.1703 51.2848C24.4222 50.0185 25.0439 48.8554 25.9568 47.9425C26.8697 47.0296 28.0328 46.4079 29.299 46.1561C30.5652 45.9042 31.8777 46.0335 33.0705 46.5275C34.2632 47.0216 35.2827 47.8582 36 48.9317C36.7172 50.0052 37.1001 51.2672 37.1001 52.5582C37.1001 54.2894 36.4123 55.9497 35.1882 57.1739C33.964 58.3981 32.3037 59.0858 30.5725 59.0858V59.0858ZM30.5725 46.6834C29.4106 46.6834 28.2747 47.028 27.3086 47.6735C26.3425 48.319 25.5895 49.2365 25.1449 50.31C24.7002 51.3835 24.5839 52.5647 24.8106 53.7043C25.0372 54.8439 25.5968 55.8907 26.4184 56.7123C27.24 57.5339 28.2868 58.0935 29.4264 58.3201C30.566 58.5468 31.7472 58.4305 32.8207 57.9858C33.8942 57.5412 34.8117 56.7882 35.4572 55.8221C36.1027 54.856 36.4473 53.7201 36.4473 52.5582C36.4473 51.0001 35.8283 49.5058 34.7266 48.4041C33.6249 47.3024 32.1306 46.6834 30.5725 46.6834V46.6834Z" fill="#2F2E41"/>
<path d="M65.1242 124.877H5.0706C4.3351 124.876 3.62996 124.584 3.10988 124.064C2.5898 123.544 2.29723 122.838 2.29639 122.103V66.2923C2.29723 65.5568 2.5898 64.8516 3.10988 64.3315C3.62996 63.8115 4.3351 63.5189 5.0706 63.5181H65.1242C65.8597 63.5189 66.5649 63.8115 67.085 64.3315C67.605 64.8516 67.8976 65.5568 67.8984 66.2923V122.103C67.8976 122.838 67.605 123.544 67.085 124.064C66.5649 124.584 65.8597 124.876 65.1242 124.877V124.877Z" fill="#F48170"/>
<path d="M39.3396 126.837H30.8538C30.1183 126.836 29.4132 126.543 28.8931 126.023C28.373 125.503 28.0804 124.798 28.0796 124.062V64.6342C28.0804 63.8987 28.373 63.1935 28.8931 62.6735C29.4132 62.1534 30.1183 61.8608 30.8538 61.86H39.3396C40.0751 61.8608 40.7803 62.1534 41.3004 62.6735C41.8205 63.1935 42.113 63.8987 42.1139 64.6342V124.062C42.113 124.798 41.8205 125.503 41.3004 126.023C40.7803 126.543 40.0751 126.836 39.3396 126.837Z" fill="#3F3D56"/>
<path d="M81.0791 57.9934C80.7282 63.7509 72.951 67.9616 72.951 67.9616C72.951 67.9616 65.7426 62.8377 66.0935 57.0802C66.4443 51.3228 74.2215 47.1121 74.2215 47.1121C74.2215 47.1121 81.4299 52.236 81.0791 57.9934Z" fill="#3F3D56"/>
<path d="M81.4315 75.9569C75.673 75.6241 71.438 67.86 71.438 67.86C71.438 67.86 76.5394 60.6357 82.2979 60.9686C88.0564 61.3014 92.2914 69.0655 92.2914 69.0655C92.2914 69.0655 87.19 76.2898 81.4315 75.9569Z" fill="#3F3D56"/>
<path opacity="0.1" d="M67.7347 70.3459V91.6519L46.543 63.6813H62.6856L67.7347 70.3459Z" fill="black"/>
<path d="M85.7259 106.817C85.297 106.818 84.8738 106.719 84.4895 106.529C84.1053 106.338 83.7705 106.061 83.5115 105.719L39.3609 47.4475C39.1409 47.1571 38.9802 46.8262 38.888 46.4738C38.7959 46.1213 38.7741 45.7541 38.8238 45.3932C38.8736 45.0323 38.9939 44.6848 39.178 44.3704C39.3621 44.056 39.6063 43.7809 39.8967 43.5609L46.4003 38.6333C46.6907 38.4133 47.0216 38.2526 47.374 38.1605C47.7265 38.0684 48.0937 38.0465 48.4546 38.0963C48.8155 38.1461 49.1631 38.2665 49.4774 38.4506C49.7918 38.6348 50.0668 38.879 50.2867 39.1695L94.4374 97.4411C94.6574 97.7314 94.8181 98.0623 94.9102 98.4148C95.0024 98.7673 95.0242 99.1344 94.9744 99.4953C94.9247 99.8562 94.8043 100.204 94.6203 100.518C94.4362 100.833 94.192 101.108 93.9016 101.328L87.3979 106.255C86.9171 106.62 86.3297 106.818 85.7259 106.817V106.817Z" fill="#F48170"/>
<path d="M68.0533 61.5375L56.8672 70.0128L65.3425 81.1989L76.5287 72.7236L68.0533 61.5375Z" fill="#3F3D56"/>
<path d="M10.51 18.9101L6.68555 33.1832L20.9586 37.0077L24.7831 22.7346L10.51 18.9101Z" fill="#D0CDE1"/>
<path d="M14.9034 39.1416L0 35.1483L3.99335 20.2445L18.8968 24.2379L14.9034 39.1416ZM0.799372 34.6867L14.4419 38.3422L18.0974 24.6994L4.45487 21.0439L0.799372 34.6867Z" fill="#2F2E41"/>
</svg>
