<svg fill="currentColor" viewBox="0 0 233 210" xmlns="http://www.w3.org/2000/svg">
<g clip-path="url(#clip0_112_220)">
<path d="M144.767 122.031H59.4216C56.5275 122.028 53.7528 120.877 51.7063 118.831C49.6598 116.785 48.5086 114.012 48.5054 111.118V10.9134C48.5086 8.01998 49.6598 5.24602 51.7063 3.20007C53.7528 1.15412 56.5275 0.00326839 59.4216 0H138.821L155.683 13.4363V111.118C155.68 114.012 154.529 116.785 152.482 118.831C150.436 120.877 147.661 122.028 144.767 122.031V122.031Z" fill="#E6E6E6"/>
<path d="M59.4216 3.14185C57.3606 3.14417 55.3847 3.96371 53.9274 5.42068C52.47 6.87764 51.6503 8.85304 51.6479 10.9135V111.118C51.6503 113.179 52.47 115.154 53.9274 116.611C55.3847 118.068 57.3606 118.888 59.4216 118.89H144.767C146.828 118.888 148.804 118.068 150.261 116.611C151.719 115.154 152.538 113.179 152.541 111.118V14.95L137.722 3.14185H59.4216Z" fill="white"/>
<path d="M128.167 32.2785H89.3105C89.0718 32.2785 88.8354 32.2315 88.6149 32.1402C88.3943 32.0489 88.1939 31.915 88.0251 31.7462C87.8563 31.5775 87.7224 31.3771 87.6311 31.1566C87.5397 30.9362 87.4927 30.6998 87.4927 30.4612C87.4927 30.2225 87.5397 29.9862 87.6311 29.7657C87.7224 29.5452 87.8563 29.3449 88.0251 29.1761C88.1939 29.0073 88.3943 28.8735 88.6149 28.7821C88.8354 28.6908 89.0718 28.6438 89.3105 28.6438H128.167C128.406 28.6438 128.642 28.6908 128.863 28.7821C129.083 28.8735 129.284 29.0073 129.452 29.1761C129.621 29.3449 129.755 29.5452 129.846 29.7657C129.938 29.9862 129.985 30.2225 129.985 30.4612C129.985 30.6998 129.938 30.9362 129.846 31.1566C129.755 31.3771 129.621 31.5775 129.452 31.7462C129.284 31.915 129.083 32.0489 128.863 32.1402C128.642 32.2315 128.406 32.2785 128.167 32.2785V32.2785Z" fill="#CCCCCC"/>
<path d="M135.666 38.4121H89.3105C88.8284 38.4121 88.366 38.2206 88.0251 37.8798C87.6842 37.539 87.4927 37.0767 87.4927 36.5947C87.4927 36.1127 87.6842 35.6505 88.0251 35.3096C88.366 34.9688 88.8284 34.7773 89.3105 34.7773H135.666C136.148 34.7773 136.61 34.9688 136.951 35.3096C137.292 35.6505 137.484 36.1127 137.484 36.5947C137.484 37.0767 137.292 37.539 136.951 37.8798C136.61 38.2206 136.148 38.4121 135.666 38.4121Z" fill="#CCCCCC"/>
<path d="M128.167 59.7663H89.3105C88.8284 59.7663 88.366 59.5749 88.0251 59.234C87.6842 58.8932 87.4927 58.431 87.4927 57.949C87.4927 57.467 87.6842 57.0047 88.0251 56.6639C88.366 56.3231 88.8284 56.1316 89.3105 56.1316H128.167C128.649 56.1316 129.112 56.3231 129.452 56.6639C129.793 57.0047 129.985 57.467 129.985 57.949C129.985 58.431 129.793 58.8932 129.452 59.234C129.112 59.5749 128.649 59.7663 128.167 59.7663Z" fill="#CCCCCC"/>
<path d="M135.666 65.8999H89.3105C88.8284 65.8999 88.366 65.7084 88.0251 65.3676C87.6842 65.0268 87.4927 64.5645 87.4927 64.0825C87.4927 63.6005 87.6842 63.1383 88.0251 62.7974C88.366 62.4566 88.8284 62.2651 89.3105 62.2651H135.666C136.148 62.2651 136.61 62.4566 136.951 62.7974C137.292 63.1383 137.484 63.6005 137.484 64.0825C137.484 64.5645 137.292 65.0268 136.951 65.3676C136.61 65.7084 136.148 65.8999 135.666 65.8999Z" fill="#CCCCCC"/>
<path d="M128.167 87.2541H89.3105C88.8284 87.2541 88.366 87.0627 88.0251 86.7218C87.6842 86.381 87.4927 85.9188 87.4927 85.4368C87.4927 84.9548 87.6842 84.4925 88.0251 84.1517C88.366 83.8109 88.8284 83.6194 89.3105 83.6194H128.167C128.649 83.6194 129.112 83.8109 129.452 84.1517C129.793 84.4925 129.985 84.9548 129.985 85.4368C129.985 85.9188 129.793 86.381 129.452 86.7218C129.112 87.0627 128.649 87.2541 128.167 87.2541Z" fill="#CCCCCC"/>
<path d="M135.666 93.3877H89.3105C88.8284 93.3877 88.366 93.1962 88.0251 92.8554C87.6842 92.5146 87.4927 92.0523 87.4927 91.5703C87.4927 91.0883 87.6842 90.626 88.0251 90.2852C88.366 89.9444 88.8284 89.7529 89.3105 89.7529H135.666C136.148 89.7529 136.61 89.9444 136.951 90.2852C137.292 90.626 137.484 91.0883 137.484 91.5703C137.484 92.0523 137.292 92.5146 136.951 92.8554C136.61 93.1962 136.148 93.3877 135.666 93.3877V93.3877Z" fill="#CCCCCC"/>
<path d="M73.1297 39.9515C76.6782 39.9515 79.5548 37.0757 79.5548 33.5281C79.5548 29.9806 76.6782 27.1047 73.1297 27.1047C69.5812 27.1047 66.7046 29.9806 66.7046 33.5281C66.7046 37.0757 69.5812 39.9515 73.1297 39.9515Z" fill="#F48170"/>
<path d="M72.4933 35.9783C72.3488 35.9786 72.2081 35.9318 72.0924 35.8451L72.0853 35.8397L70.5753 34.685C70.4342 34.5766 70.3419 34.4168 70.3187 34.2405C70.2955 34.0642 70.3433 33.8859 70.4515 33.7448C70.5597 33.6036 70.7195 33.5112 70.8958 33.4879C71.0722 33.4645 71.2506 33.5121 71.3918 33.6202L72.3699 34.37L74.681 31.3556C74.7346 31.2857 74.8015 31.2271 74.8777 31.183C74.954 31.1389 75.0382 31.1103 75.1255 31.0988C75.2129 31.0873 75.3016 31.093 75.3867 31.1158C75.4718 31.1385 75.5516 31.1778 75.6215 31.2314L75.6216 31.2316L75.6073 31.2515L75.622 31.2316C75.7631 31.3399 75.8553 31.4998 75.8786 31.6761C75.9019 31.8524 75.8542 32.0307 75.7461 32.1719L73.0277 35.7159C72.9648 35.7976 72.8839 35.8636 72.7913 35.909C72.6988 35.9544 72.597 35.9778 72.4939 35.9775L72.4933 35.9783Z" fill="white"/>
<path d="M73.7913 67.4391C77.3398 67.4391 80.2164 64.5632 80.2164 61.0157C80.2164 57.4681 77.3398 54.5923 73.7913 54.5923C70.2428 54.5923 67.3662 57.4681 67.3662 61.0157C67.3662 64.5632 70.2428 67.4391 73.7913 67.4391Z" fill="#CCCCCC"/>
<path d="M73.1297 94.9269C76.6782 94.9269 79.5548 92.051 79.5548 88.5035C79.5548 84.9559 76.6782 82.0801 73.1297 82.0801C69.5812 82.0801 66.7046 84.9559 66.7046 88.5035C66.7046 92.051 69.5812 94.9269 73.1297 94.9269Z" fill="#CCCCCC"/>
<path d="M155.355 13.8687H142.146C141.182 13.8687 140.257 13.4858 139.576 12.8042C138.894 12.1225 138.511 11.198 138.511 10.234V0.481082C138.511 0.438382 138.523 0.396544 138.545 0.360371C138.568 0.324198 138.601 0.295152 138.639 0.276564C138.678 0.257975 138.72 0.250596 138.763 0.255274C138.805 0.259952 138.846 0.276496 138.879 0.303011L155.496 13.4635C155.533 13.4928 155.56 13.5329 155.573 13.5782C155.586 13.6234 155.585 13.6717 155.569 13.7163C155.554 13.7608 155.525 13.7994 155.486 13.8267C155.448 13.8541 155.402 13.8687 155.355 13.8687Z" fill="#E6E6E6"/>
<path d="M65.9436 140.806L15.449 151.447C13.9898 151.753 12.4688 151.467 11.2198 150.653C9.97074 149.84 9.09566 148.564 8.78652 147.105L0.121719 106.008C-0.184147 104.55 0.101305 103.029 0.91545 101.78C1.72959 100.532 3.00594 99.6568 4.46448 99.3477L54.9591 88.7071C56.4183 88.4014 57.9393 88.6867 59.1883 89.5007C60.4373 90.3146 61.3124 91.5906 61.6215 93.0487L70.2864 134.146C70.5922 135.605 70.3068 137.125 69.4926 138.374C68.6785 139.623 67.4021 140.497 65.9436 140.806Z" fill="white"/>
<path d="M65.9436 140.806L15.449 151.447C13.9898 151.753 12.4688 151.467 11.2198 150.653C9.97074 149.84 9.09566 148.564 8.78652 147.105L0.121719 106.008C-0.184147 104.55 0.101305 103.029 0.91545 101.78C1.72959 100.532 3.00594 99.6568 4.46448 99.3477L54.9591 88.7071C56.4183 88.4014 57.9393 88.6867 59.1883 89.5007C60.4373 90.3146 61.3124 91.5906 61.6215 93.0487L70.2864 134.146C70.5922 135.605 70.3068 137.125 69.4926 138.374C68.6785 139.623 67.4021 140.497 65.9436 140.806ZM4.60093 99.9949C3.31399 100.268 2.18781 101.04 1.46945 102.141C0.751085 103.243 0.499209 104.585 0.769081 105.872L9.43388 146.969C9.70667 148.256 10.4788 149.381 11.5809 150.1C12.683 150.818 14.025 151.07 15.3125 150.8L65.8071 140.159C67.0941 139.887 68.2203 139.115 68.9386 138.013C69.657 136.911 69.9089 135.569 69.639 134.282L60.9742 93.1852C60.7014 91.8986 59.9293 90.7727 58.8272 90.0545C57.7251 89.3364 56.3831 89.0846 55.0955 89.3544L4.60093 99.9949Z" fill="#3F3D56"/>
<path d="M51.8215 102.258L26.3376 107.628C26.1146 107.68 25.8802 107.645 25.6819 107.531C25.4836 107.416 25.3361 107.231 25.2693 107.012C25.2388 106.898 25.2318 106.779 25.2488 106.662C25.2659 106.545 25.3066 106.433 25.3684 106.332C25.4303 106.231 25.512 106.144 25.6087 106.076C25.7053 106.008 25.8148 105.96 25.9304 105.936L51.8716 100.469C52.8844 101.04 52.5643 102.102 51.8212 102.258L51.8215 102.258Z" fill="#CCCCCC"/>
<path d="M52.7639 106.727L27.28 112.097C27.0569 112.149 26.8226 112.114 26.6243 112C26.426 111.885 26.2785 111.7 26.2117 111.481C26.1812 111.367 26.1742 111.248 26.1912 111.131C26.2083 111.014 26.2489 110.901 26.3108 110.801C26.3727 110.7 26.4544 110.613 26.551 110.545C26.6477 110.477 26.7572 110.429 26.8728 110.405L52.8139 104.938C53.8268 105.509 53.5067 106.57 52.7636 106.727L52.7639 106.727Z" fill="#CCCCCC"/>
<path d="M22.3071 115.802L14.5297 117.441C14.2757 117.495 14.0109 117.445 13.7935 117.303C13.5761 117.162 13.4238 116.939 13.37 116.686L11.4354 107.51C11.3821 107.256 11.4318 106.991 11.5735 106.774C11.7152 106.557 11.9374 106.404 12.1913 106.351L19.9688 104.712C20.2228 104.659 20.4875 104.708 20.7049 104.85C20.9223 104.992 21.0746 105.214 21.1284 105.467L23.063 114.643C23.1163 114.897 23.0666 115.162 22.9249 115.379C22.7832 115.596 22.561 115.749 22.3071 115.802V115.802Z" fill="#CCCCCC"/>
<path d="M54.6189 115.893L15.7258 124.089C15.5027 124.14 15.2684 124.105 15.0701 123.991C14.8718 123.877 14.7243 123.691 14.6575 123.472C14.6269 123.358 14.62 123.239 14.637 123.122C14.6541 123.005 14.6947 122.893 14.7566 122.792C14.8185 122.692 14.9002 122.604 14.9968 122.536C15.0935 122.468 15.203 122.421 15.3186 122.396L54.6693 114.104C55.6822 114.675 55.362 115.736 54.6189 115.893V115.893Z" fill="#CCCCCC"/>
<path d="M55.5613 120.363L16.6681 128.559C16.4451 128.611 16.2108 128.576 16.0125 128.461C15.8142 128.347 15.6667 128.162 15.5999 127.943C15.5693 127.829 15.5624 127.709 15.5794 127.592C15.5964 127.475 15.6371 127.363 15.699 127.262C15.7609 127.162 15.8426 127.075 15.9392 127.007C16.0359 126.939 16.1454 126.891 16.261 126.867L55.6117 118.574C56.6246 119.145 56.3044 120.206 55.5613 120.363Z" fill="#CCCCCC"/>
<path d="M56.5032 124.83L17.61 133.026C17.387 133.078 17.1527 133.043 16.9544 132.929C16.7561 132.814 16.6086 132.629 16.5418 132.41C16.5112 132.296 16.5043 132.177 16.5213 132.06C16.5383 131.943 16.579 131.83 16.6409 131.73C16.7028 131.629 16.7845 131.542 16.8811 131.474C16.9778 131.406 17.0872 131.358 17.2029 131.334L56.5536 123.042C57.5665 123.612 57.2463 124.674 56.5032 124.83V124.83Z" fill="#CCCCCC"/>
<path d="M57.4456 129.3L18.5524 137.496C18.3294 137.548 18.0951 137.513 17.8968 137.398C17.6985 137.284 17.551 137.099 17.4842 136.88C17.4536 136.765 17.4466 136.646 17.4637 136.529C17.4807 136.412 17.5214 136.3 17.5833 136.199C17.6451 136.099 17.7269 136.012 17.8235 135.944C17.9201 135.876 18.0296 135.828 18.1453 135.803L57.496 127.511C58.5088 128.082 58.1887 129.143 57.4456 129.3V129.3Z" fill="#CCCCCC"/>
<path d="M58.3875 133.768L19.4943 141.964C19.2713 142.015 19.0369 141.98 18.8387 141.866C18.6404 141.752 18.4929 141.566 18.4261 141.347C18.3955 141.233 18.3885 141.114 18.4056 140.997C18.4226 140.88 18.4633 140.768 18.5252 140.667C18.587 140.566 18.6688 140.479 18.7654 140.411C18.862 140.343 18.9715 140.296 19.0872 140.271L58.4379 131.979C59.4507 132.55 59.1306 133.611 58.3875 133.768V133.768Z" fill="#CCCCCC"/>
<path d="M65.2531 113.308C65.1647 113.468 65.0892 113.635 65.0271 113.807L49.1047 117.757L46.3348 114.892L41.4639 118.507L45.8744 124.055C46.2308 124.503 46.7229 124.823 47.2769 124.968C47.831 125.113 48.4171 125.074 48.9472 124.857L66.2244 117.799C66.7923 118.217 67.474 118.452 68.1788 118.474C68.8837 118.495 69.5782 118.301 70.1701 117.918C70.762 117.535 71.2233 116.98 71.4924 116.329C71.7616 115.677 71.8259 114.959 71.6769 114.27C71.5279 113.581 71.1726 112.954 70.6582 112.472C70.1439 111.989 69.4949 111.675 68.7975 111.571C68.1002 111.466 67.3875 111.576 66.7544 111.887C66.1212 112.197 65.5976 112.693 65.2531 113.308L65.2531 113.308Z" fill="#A0616A"/>
<path d="M10.9046 148.459C11.401 148.306 11.8577 148.046 12.2426 147.697C12.6276 147.348 12.9313 146.919 13.1325 146.441C13.3336 145.962 13.4273 145.445 13.4069 144.926C13.3865 144.407 13.2526 143.898 13.0145 143.437L23.9718 112.989L16.3623 111.641L7.9844 141.994C7.2352 142.445 6.67761 143.156 6.41729 143.99C6.15696 144.825 6.21199 145.726 6.57194 146.523C6.9319 147.32 7.57176 147.958 8.3703 148.314C9.16884 148.671 10.0706 148.723 10.9046 148.459V148.459Z" fill="#A0616A"/>
<path d="M22.5801 118.394L15.0669 115.511C14.8531 115.429 14.6595 115.302 14.4993 115.139C14.3391 114.975 14.2161 114.779 14.1386 114.563C14.061 114.348 14.0308 114.119 14.0501 113.89C14.0693 113.662 14.1374 113.441 14.2499 113.242L18.1913 106.255C18.6174 105.164 19.4587 104.287 20.5309 103.815C21.6031 103.343 22.8187 103.316 23.9111 103.739C25.0035 104.161 25.8837 105 26.3586 106.071C26.8336 107.141 26.8645 108.356 26.4447 109.45L24.7062 117.254C24.6563 117.477 24.5589 117.687 24.4205 117.869C24.2822 118.052 24.1061 118.202 23.9043 118.311C23.7026 118.419 23.4798 118.482 23.2513 118.497C23.0228 118.511 22.7938 118.476 22.5801 118.394V118.394Z" fill="#F48170"/>
<path d="M39.5383 205.623L43.5938 205.623L45.523 189.985L39.5376 189.985L39.5383 205.623Z" fill="#A0616A"/>
<path d="M38.5039 204.3L46.4906 204.299H46.4909C47.1593 204.299 47.8212 204.431 48.4387 204.687C49.0562 204.942 49.6173 205.317 50.0899 205.79C50.5626 206.262 50.9375 206.823 51.1933 207.44C51.449 208.058 51.5807 208.719 51.5807 209.388V209.553L38.5042 209.553L38.5039 204.3Z" fill="#2F2E41"/>
<path d="M16.7136 205.623L20.7691 205.623L22.6983 189.985L16.7129 189.985L16.7136 205.623Z" fill="#A0616A"/>
<path d="M15.6787 204.3L23.6654 204.299H23.6657C24.3341 204.299 24.996 204.431 25.6135 204.687C26.231 204.942 26.7921 205.317 27.2647 205.79C27.7374 206.262 28.1123 206.823 28.3681 207.44C28.6238 208.058 28.7555 208.719 28.7555 209.388V209.553L15.679 209.553L15.6787 204.3Z" fill="#2F2E41"/>
<path d="M20.965 199.329H15.8328C15.6314 199.329 15.432 199.288 15.2469 199.209C15.0617 199.13 14.8946 199.014 14.7555 198.868C14.6165 198.722 14.5086 198.55 14.4382 198.361C14.3677 198.172 14.3364 197.971 14.3459 197.77L16.7837 145.408L16.9373 145.404L41.7202 144.758L46.5698 197.15C46.5885 197.346 46.5679 197.545 46.5092 197.733C46.4506 197.921 46.3551 198.096 46.2282 198.247C46.1014 198.398 45.9457 198.523 45.7704 198.613C45.595 198.704 45.4034 198.758 45.2067 198.774L39.4421 199.235C39.08 199.264 38.7198 199.159 38.4294 198.941C38.139 198.723 37.9383 198.406 37.8652 198.051L30.4917 160.754C30.4716 160.641 30.4115 160.539 30.3223 160.466C30.2331 160.393 30.1208 160.355 30.0057 160.358H30.0037C29.8882 160.355 29.7757 160.394 29.6867 160.468C29.5976 160.541 29.538 160.644 29.5187 160.758L22.4255 198.128C22.3584 198.466 22.1761 198.771 21.9099 198.99C21.6436 199.209 21.3097 199.328 20.965 199.329V199.329Z" fill="#2F2E41"/>
<path d="M30.3659 98.7082C34.853 98.7082 38.4906 95.0716 38.4906 90.5857C38.4906 86.0997 34.853 82.4631 30.3659 82.4631C25.8788 82.4631 22.2412 86.0997 22.2412 90.5857C22.2412 95.0716 25.8788 98.7082 30.3659 98.7082Z" fill="#A0616A"/>
<path d="M27.6415 151.544C23.7692 151.544 19.7917 150.527 16.4944 147.518C16.3189 147.359 16.1835 147.161 16.099 146.94C16.0145 146.719 15.9835 146.481 16.0083 146.245C16.3612 143.075 18.0732 126.706 17.1091 115.772C16.9209 113.73 17.2101 111.672 17.9539 109.761C18.6976 107.849 19.8756 106.137 21.3947 104.758C22.8873 103.383 24.6791 102.373 26.6287 101.809C28.5784 101.245 30.6326 101.141 32.6293 101.506H32.6293C32.7305 101.524 32.8316 101.543 32.9329 101.563C39.4375 102.821 43.957 108.839 43.4456 115.562C42.6994 125.371 42.0304 138.638 43.0808 146.142C43.1243 146.449 43.0707 146.762 42.9275 147.037C42.7842 147.311 42.5585 147.535 42.282 147.675C39.892 148.882 33.9042 151.544 27.6415 151.544Z" fill="#F48170"/>
<path d="M38.2434 118.979C38.0527 118.852 37.8917 118.685 37.7713 118.491C37.6508 118.296 37.5739 118.078 37.5456 117.85L36.5557 109.917C36.2415 108.789 36.3876 107.582 36.962 106.561C37.5364 105.54 38.4922 104.789 39.6199 104.472C40.7476 104.154 41.9551 104.297 42.9777 104.868C44.0003 105.44 44.7546 106.393 45.0751 107.52L48.3355 114.849C48.4285 115.058 48.4754 115.285 48.4728 115.513C48.4703 115.742 48.4185 115.968 48.3208 116.175C48.2232 116.382 48.0821 116.566 47.9071 116.713C47.7321 116.861 47.5273 116.969 47.3067 117.031L39.5538 119.187C39.3332 119.249 39.1019 119.262 38.8758 119.226C38.6496 119.19 38.4339 119.106 38.2434 118.979V118.979Z" fill="#F48170"/>
<path d="M27.53 98.5935C26.761 98.6078 25.9968 98.4696 25.2815 98.1868C24.9668 98.0656 24.6401 97.9659 24.326 97.8446C21.5517 96.773 19.7242 93.8192 19.6587 90.8466C19.5933 87.874 21.1331 84.9888 23.4196 83.0874C25.7061 81.186 28.6677 80.2098 31.6332 79.9841C34.8276 79.7409 38.4245 80.5508 40.2095 83.2103C40.6847 83.9183 41.0169 84.7772 40.7354 85.6319C40.6511 85.8899 40.5005 86.1212 40.2987 86.3026C39.5015 87.0117 38.7068 86.4785 37.8942 86.4314C36.7772 86.3667 35.774 87.2705 35.4134 88.3294C35.0529 89.3882 35.2116 90.5539 35.5027 91.6339C35.7245 92.2838 35.8644 92.9588 35.919 93.6433C35.9425 93.9865 35.8779 94.33 35.7314 94.6413C35.5849 94.9526 35.3613 95.2213 35.0817 95.422C34.3838 95.8438 33.4672 95.5997 32.7688 95.1786C32.0705 94.7575 31.467 94.172 30.7127 93.8621C29.9583 93.5522 28.9449 93.621 28.5058 94.3081C28.3662 94.5581 28.2718 94.8307 28.2268 95.1134C27.8332 96.9063 27.9236 96.8007 27.53 98.5935V98.5935Z" fill="#2F2E41"/>
<path d="M63.4027 210H0.551499C0.463766 210 0.379627 209.965 0.317591 209.903C0.255554 209.841 0.220703 209.757 0.220703 209.669C0.220703 209.582 0.255554 209.498 0.317591 209.435C0.379627 209.373 0.463766 209.339 0.551499 209.339H63.4027C63.4904 209.339 63.5745 209.373 63.6366 209.435C63.6986 209.498 63.7335 209.582 63.7335 209.669C63.7335 209.757 63.6986 209.841 63.6366 209.903C63.5745 209.965 63.4904 210 63.4027 210Z" fill="#CCCCCC"/>
<path d="M224.284 141.751L179.276 166.99C177.975 167.718 176.438 167.9 175.003 167.496C173.568 167.093 172.351 166.136 171.621 164.837L151.068 128.206C150.34 126.906 150.158 125.369 150.562 123.934C150.966 122.499 151.922 121.283 153.222 120.553L198.229 95.3138C199.53 94.5861 201.067 94.4041 202.502 94.8077C203.937 95.2113 205.154 96.1676 205.885 97.4668L226.437 134.098C227.165 135.399 227.347 136.935 226.943 138.37C226.54 139.805 225.583 141.021 224.284 141.751V141.751Z" fill="white"/>
<path d="M224.284 141.751L179.276 166.99C177.975 167.718 176.438 167.9 175.003 167.496C173.568 167.093 172.351 166.136 171.621 164.837L151.068 128.206C150.34 126.906 150.158 125.369 150.562 123.934C150.966 122.499 151.922 121.283 153.222 120.553L198.229 95.3138C199.53 94.5861 201.067 94.4041 202.502 94.8077C203.937 95.2113 205.154 96.1676 205.885 97.4668L226.437 134.098C227.165 135.399 227.347 136.935 226.943 138.37C226.54 139.805 225.583 141.021 224.284 141.751V141.751ZM153.545 121.13C152.399 121.774 151.555 122.847 151.199 124.113C150.842 125.379 151.003 126.735 151.645 127.883L172.198 164.514C172.842 165.66 173.916 166.504 175.182 166.86C176.449 167.216 177.805 167.055 178.953 166.413L223.96 141.175C225.107 140.53 225.951 139.457 226.307 138.191C226.663 136.925 226.502 135.569 225.86 134.421L205.308 97.7904C204.663 96.644 203.589 95.8003 202.323 95.4441C201.057 95.088 199.701 95.2486 198.553 95.8907L153.545 121.13Z" fill="#3F3D56"/>
<path d="M199.285 109.183L176.571 121.92C176.373 122.036 176.139 122.073 175.916 122.023C175.692 121.973 175.496 121.841 175.367 121.652C175.304 121.552 175.262 121.44 175.243 121.323C175.224 121.207 175.229 121.087 175.258 120.973C175.287 120.858 175.339 120.751 175.411 120.657C175.483 120.563 175.573 120.485 175.676 120.427L198.798 107.461C199.936 107.703 199.947 108.812 199.285 109.183L199.285 109.183Z" fill="#CCCCCC"/>
<path d="M201.52 113.166L178.806 125.904C178.608 126.02 178.374 126.057 178.151 126.007C177.927 125.957 177.731 125.824 177.602 125.635C177.539 125.535 177.496 125.424 177.478 125.307C177.459 125.19 177.464 125.071 177.493 124.956C177.522 124.842 177.574 124.734 177.646 124.64C177.718 124.547 177.808 124.468 177.911 124.411L201.033 111.444C202.17 111.686 202.182 112.795 201.52 113.166L201.52 113.166Z" fill="#CCCCCC"/>
<path d="M175.168 130.925L168.235 134.813C168.009 134.939 167.741 134.971 167.492 134.901C167.242 134.831 167.03 134.664 166.903 134.438L162.314 126.26C162.187 126.033 162.156 125.766 162.226 125.516C162.296 125.266 162.463 125.054 162.689 124.927L169.621 121.04C169.848 120.913 170.115 120.882 170.365 120.952C170.615 121.022 170.827 121.189 170.954 121.415L175.543 129.593C175.669 129.82 175.701 130.087 175.631 130.337C175.56 130.587 175.394 130.798 175.168 130.925L175.168 130.925Z" fill="#CCCCCC"/>
<path d="M206.03 121.359L171.363 140.799C171.166 140.915 170.932 140.952 170.708 140.902C170.485 140.852 170.289 140.719 170.16 140.53C170.096 140.43 170.054 140.318 170.035 140.202C170.017 140.085 170.022 139.966 170.051 139.851C170.08 139.737 170.132 139.629 170.204 139.535C170.276 139.441 170.366 139.363 170.469 139.305L205.543 119.637C206.68 119.879 206.692 120.987 206.03 121.359Z" fill="#CCCCCC"/>
<path d="M208.265 125.343L173.599 144.783C173.401 144.899 173.167 144.936 172.944 144.886C172.72 144.836 172.524 144.703 172.395 144.515C172.332 144.415 172.289 144.303 172.271 144.186C172.252 144.07 172.257 143.95 172.286 143.836C172.315 143.721 172.367 143.614 172.439 143.52C172.511 143.426 172.601 143.348 172.704 143.29L207.779 123.621C208.916 123.863 208.928 124.972 208.265 125.343V125.343Z" fill="#CCCCCC"/>
<path d="M210.5 129.325L175.833 148.765C175.636 148.881 175.402 148.918 175.178 148.868C174.955 148.818 174.759 148.685 174.629 148.496C174.566 148.396 174.524 148.285 174.505 148.168C174.486 148.051 174.492 147.932 174.521 147.818C174.55 147.703 174.602 147.595 174.673 147.502C174.745 147.408 174.836 147.33 174.939 147.272L210.013 127.603C211.15 127.845 211.162 128.954 210.5 129.325V129.325Z" fill="#CCCCCC"/>
<path d="M212.735 133.309L178.068 152.749C177.871 152.865 177.637 152.902 177.413 152.852C177.19 152.802 176.994 152.669 176.865 152.48C176.801 152.381 176.759 152.269 176.74 152.152C176.722 152.036 176.727 151.916 176.756 151.802C176.785 151.687 176.837 151.58 176.909 151.486C176.981 151.392 177.071 151.314 177.174 151.256L212.248 131.587C213.385 131.829 213.397 132.938 212.735 133.309H212.735Z" fill="#CCCCCC"/>
<path d="M214.969 137.291L180.302 156.731C180.105 156.847 179.871 156.884 179.647 156.834C179.424 156.784 179.228 156.652 179.099 156.463C179.035 156.363 178.993 156.251 178.974 156.134C178.956 156.018 178.961 155.898 178.99 155.784C179.019 155.669 179.071 155.562 179.143 155.468C179.215 155.374 179.305 155.296 179.408 155.238L214.482 135.569C215.619 135.811 215.631 136.92 214.969 137.291V137.291Z" fill="#CCCCCC"/>
<path d="M208.921 152.214C209.11 151.798 209.205 151.345 209.2 150.888C209.195 150.431 209.089 149.98 208.891 149.569C208.693 149.157 208.407 148.793 208.053 148.504C207.7 148.214 207.287 148.006 206.843 147.893L205.901 136.823L201.367 140.399L202.957 150.363C202.817 151.12 202.96 151.901 203.358 152.56C203.756 153.219 204.382 153.708 205.117 153.937C205.852 154.165 206.645 154.115 207.346 153.798C208.047 153.48 208.608 152.917 208.921 152.214V152.214Z" fill="#FFB8B8"/>
<path d="M205.987 146.734L202.221 147.183C202.03 147.205 201.836 147.188 201.652 147.133C201.467 147.077 201.296 146.984 201.149 146.859C201.002 146.735 200.883 146.581 200.798 146.408C200.714 146.235 200.666 146.046 200.657 145.854L200.108 133.154L192.971 113.66C192.684 113.055 192.554 112.388 192.591 111.72C192.628 111.052 192.832 110.404 193.183 109.834C193.358 109.559 193.558 109.301 193.781 109.063C194.22 108.59 194.767 108.23 195.376 108.014C195.984 107.798 196.635 107.733 197.275 107.823C197.933 107.91 198.561 108.154 199.107 108.533C199.653 108.912 200.1 109.415 200.412 110.002L205.067 119.753C207.014 123.832 207.933 128.325 207.744 132.841L207.219 145.403C207.205 145.732 207.076 146.046 206.854 146.288C206.632 146.531 206.332 146.688 206.005 146.731L205.987 146.734Z" fill="#F48170"/>
<path d="M219.359 201.621L215.868 203.153L208.296 190.42L213.448 188.159L219.359 201.621Z" fill="#FFB8B8"/>
<path d="M221.735 204.614L210.478 209.554L210.416 209.411C210.163 208.836 210.026 208.217 210.013 207.589C210 206.96 210.111 206.336 210.339 205.751C210.567 205.165 210.909 204.631 211.344 204.177C211.778 203.724 212.299 203.361 212.874 203.108L212.874 203.108L219.75 200.091L221.735 204.614Z" fill="#2F2E41"/>
<path d="M172.489 205.859H168.677L166.863 191.156L172.49 191.157L172.489 205.859Z" fill="#FFB8B8"/>
<path d="M173.461 209.554L161.167 209.553V209.398C161.167 208.77 161.291 208.147 161.532 207.567C161.772 206.987 162.125 206.459 162.569 206.015C163.013 205.571 163.541 205.219 164.121 204.978C164.702 204.738 165.324 204.614 165.953 204.614H165.953L173.461 204.614L173.461 209.554Z" fill="#2F2E41"/>
<path d="M209.609 200.833L188.37 153.448C188.332 153.359 188.267 153.284 188.184 153.234C188.102 153.184 188.005 153.16 187.909 153.167C187.812 153.174 187.72 153.211 187.646 153.272C187.571 153.333 187.517 153.417 187.492 153.51L174.551 199.278C174.465 199.598 174.268 199.878 173.995 200.066C173.722 200.254 173.391 200.338 173.061 200.303L165.993 199.597C165.629 199.559 165.294 199.38 165.06 199.099C164.825 198.818 164.709 198.456 164.737 198.091C166.985 170.139 170.529 143.757 181.145 126.487L181.201 126.395L197.259 129.542L218.698 197.792C218.804 198.144 218.768 198.523 218.597 198.848C218.427 199.173 218.137 199.419 217.788 199.533L211.323 201.61C210.992 201.718 210.632 201.698 210.315 201.554C209.998 201.41 209.746 201.153 209.609 200.833V200.833Z" fill="#2F2E41"/>
<path d="M188.963 102.213C193.181 102.213 196.601 98.7946 196.601 94.5772C196.601 90.3598 193.181 86.9409 188.963 86.9409C184.744 86.9409 181.325 90.3598 181.325 94.5772C181.325 98.7946 184.744 102.213 188.963 102.213Z" fill="#FFB8B8"/>
<path d="M180.158 127.808L180.061 127.788L180.038 127.692C179.009 123.348 178.984 118.607 179.965 113.602C180.462 111.044 181.847 108.743 183.874 107.105C185.902 105.467 188.443 104.597 191.049 104.648V104.648C193.877 104.705 196.576 105.841 198.594 107.822C200.612 109.804 201.797 112.481 201.905 115.307C202.233 123.916 198.713 131.38 198.678 131.454L198.625 131.563L180.158 127.808Z" fill="#F48170"/>
<path d="M159.682 142.336C160.134 142.269 160.566 142.104 160.948 141.852C161.329 141.6 161.651 141.268 161.89 140.878C162.129 140.489 162.28 140.051 162.332 139.597C162.383 139.143 162.335 138.683 162.19 138.25L170.988 131.462L165.525 129.588L158.008 136.321C157.296 136.614 156.716 137.157 156.377 137.848C156.039 138.539 155.966 139.331 156.173 140.072C156.379 140.813 156.85 141.453 157.497 141.871C158.144 142.288 158.921 142.453 159.682 142.336V142.336Z" fill="#FFB8B8"/>
<path d="M164.487 137.217C164.201 137.386 163.863 137.447 163.535 137.39C163.208 137.332 162.912 137.159 162.7 136.902L160.283 133.98C160.161 133.832 160.07 133.66 160.017 133.475C159.964 133.289 159.949 133.095 159.975 132.904C160 132.713 160.065 132.53 160.164 132.365C160.264 132.2 160.397 132.058 160.554 131.946L170.935 124.607L183.461 108.05C183.815 107.482 184.305 107.011 184.886 106.68C185.468 106.35 186.124 106.17 186.793 106.156C187.119 106.154 187.444 106.183 187.765 106.241V106.241C188.401 106.354 189 106.619 189.511 107.013C190.022 107.408 190.43 107.92 190.7 108.506C190.983 109.107 191.119 109.766 191.096 110.43C191.072 111.094 190.891 111.743 190.567 112.322L181.292 127.339L181.272 127.371L164.487 137.217Z" fill="#F48170"/>
<path d="M190.329 94.1033C189.766 93.1774 188.524 92.9159 187.445 93.0215C186.366 93.1271 185.318 93.5061 184.234 93.4977C181.225 93.4744 178.902 89.8078 180.167 87.0781C181.205 84.8394 183.796 83.8564 186.14 83.0849C191.055 81.4673 196.701 79.9131 201.161 82.5359C202.582 83.3965 203.748 84.6208 204.538 86.0824C205.327 87.5439 205.712 89.1898 205.653 90.85C205.553 92.9141 204.762 95.0344 205.431 96.9899C206.202 99.2459 208.648 100.456 210.96 101.042C215.013 102.068 219.285 101.903 223.363 102.823C227.441 103.744 231.62 106.188 232.719 110.221C233.441 112.869 232.687 115.72 231.44 118.166C230.167 120.661 228.398 122.87 226.241 124.657C224.084 126.445 221.585 127.773 218.897 128.562C216.209 129.35 213.388 129.581 210.607 129.242C207.826 128.902 205.144 127.998 202.725 126.586C197.795 123.708 194.236 118.844 192.114 113.546C190.911 110.456 190.064 107.238 189.59 103.956C189.115 100.883 189.518 97.7783 190.378 94.7907C190.419 94.6791 190.436 94.5601 190.427 94.4417C190.419 94.3232 190.385 94.2079 190.329 94.1033Z" fill="#2F2E41"/>
<path d="M217.885 210H155.033C154.946 210 154.862 209.965 154.8 209.903C154.737 209.841 154.703 209.757 154.703 209.669C154.703 209.582 154.737 209.498 154.8 209.435C154.862 209.373 154.946 209.339 155.033 209.339H217.885C217.972 209.339 218.056 209.373 218.118 209.435C218.18 209.498 218.215 209.582 218.215 209.669C218.215 209.757 218.18 209.841 218.118 209.903C218.056 209.965 217.972 210 217.885 210Z" fill="#CCCCCC"/>
</g>
<defs>
<clipPath id="clip0_112_220">
<rect width="233" height="210" fill="white"/>
</clipPath>
</defs>
</svg>
